<!-- PLACEHOLDER ART — swap for a real @bydaliascorner photo of Shokat (1:1). -->
<svg xmlns="http://www.w3.org/2000/svg" viewBox="0 0 400 400" width="400" height="400" role="img" aria-label="Shokat the fox planter (placeholder)">
  <rect width="400" height="400" fill="#F5E6D8"/>
  <circle cx="200" cy="195" r="150" fill="#EAD0B6"/>
  <ellipse cx="200" cy="345" rx="120" ry="20" fill="#000000" opacity="0.06"/>
  <!-- plant -->
  <g stroke="#3A5A40" stroke-width="6" stroke-linecap="round" fill="#8FAA7C">
    <path d="M200 150 C186 112 166 100 148 98 C158 124 174 142 200 154Z"/>
    <path d="M200 150 C214 110 236 98 256 98 C246 126 228 144 200 154Z"/>
    <path d="M200 158 C200 120 200 104 200 92" fill="none"/>
  </g>
  <!-- ears -->
  <path d="M132 196 L118 132 L172 168Z" fill="#C07A4E" stroke="#8F5230" stroke-width="4"/>
  <path d="M268 196 L282 132 L228 168Z" fill="#C07A4E" stroke="#8F5230" stroke-width="4"/>
  <path d="M138 178 L132 150 L156 168Z" fill="#FCF3DD"/>
  <path d="M262 178 L268 150 L244 168Z" fill="#FCF3DD"/>
  <!-- fox body / pot -->
  <path d="M124 206 C124 168 158 150 200 150 C242 150 276 168 276 206 L268 300 C266 326 242 344 200 344 C158 344 134 326 132 300 Z" fill="#C07A4E" stroke="#8F5230" stroke-width="4"/>
  <!-- white snout -->
  <path d="M150 250 C150 232 172 224 200 224 C228 224 250 232 250 250 L244 300 C242 322 224 334 200 334 C176 334 158 322 156 300 Z" fill="#FCF3DD"/>
  <!-- eyes -->
  <circle cx="172" cy="232" r="9" fill="#1E2B22"/>
  <circle cx="228" cy="232" r="9" fill="#1E2B22"/>
  <circle cx="175" cy="229" r="3" fill="#FFFFFF"/>
  <circle cx="231" cy="229" r="3" fill="#FFFFFF"/>
  <!-- nose -->
  <path d="M190 262 Q200 274 210 262 Q200 270 190 262Z" fill="#1E2B22"/>
  <!-- whiskers -->
  <g stroke="#8F5230" stroke-width="2.5" stroke-linecap="round">
    <path d="M150 268 H120"/>
    <path d="M152 280 H124"/>
    <path d="M250 268 H280"/>
    <path d="M248 280 H276"/>
  </g>
  <circle cx="160" cy="270" r="11" fill="#E8924A" opacity="0.5"/>
  <circle cx="240" cy="270" r="11" fill="#E8924A" opacity="0.5"/>
</svg>
